<mxfile host="app.diagrams.net" modified="2024-03-05T13:42:55.998Z" agent="Mozilla/5.0 (Windows NT 10.0; Win64; x64) AppleWebKit/537.36 (KHTML, like Gecko) Chrome/121.0.0.0 Safari/537.36" version="22.1.15" etag="wpsaHnhdiB2udtl2jJ-y" type="github">
  <diagram name="Page-1" id="8Zc2UkpsZ1j8iffXe56V">
    <mxGraphModel>
      <root>
        <mxCell id="0" />
        <mxCell id="1" parent="0" />
      </root>
    </mxGraphModel>
  </diagram>
</mxfile>
